<mxfile host="65bd71144e">
    <diagram id="_2MxW5sxZlGuRYude0Ia" name="Page-1">
        <mxGraphModel dx="2113" dy="3394" grid="1" gridSize="10" guides="1" tooltips="1" connect="1" arrows="1" fold="1" page="1" pageScale="1" pageWidth="850" pageHeight="1100" math="0" shadow="0">
            <root>
                <mxCell id="0"/>
                <mxCell id="1" parent="0"/>
                <mxCell id="56" style="edgeStyle=orthogonalEdgeStyle;html=1;exitX=0.5;exitY=1;exitDx=0;exitDy=0;entryX=1;entryY=0.5;entryDx=0;entryDy=0;fontFamily=Helvetica;fontSize=12;fontColor=default;endArrow=ERzeroToMany;endFill=1;" edge="1" parent="1" source="10" target="54">
                    <mxGeometry relative="1" as="geometry"/>
                </mxCell>
                <mxCell id="57" value="N-to-1" style="edgeLabel;html=1;align=center;verticalAlign=middle;resizable=0;points=[];rounded=1;shadow=0;strokeColor=#005700;spacingTop=0;spacing=1;fontFamily=Helvetica;fontSize=12;fontColor=default;fillColor=#008a00;" vertex="1" connectable="0" parent="56">
                    <mxGeometry x="0.3891" y="-1" relative="1" as="geometry">
                        <mxPoint as="offset"/>
                    </mxGeometry>
                </mxCell>
                <mxCell id="10" value="&lt;div&gt;&lt;font style=&quot;color: rgb(255, 255, 255);&quot;&gt;Users&lt;/font&gt;&lt;/div&gt;&lt;div&gt;&lt;ul style=&quot;padding-left: 20px;&quot;&gt;&lt;li&gt;&lt;font style=&quot;color: rgb(255, 255, 255);&quot;&gt;User Name&lt;/font&gt;&lt;/li&gt;&lt;li&gt;&lt;font style=&quot;color: rgb(255, 255, 255);&quot;&gt;Full Name&lt;/font&gt;&lt;/li&gt;&lt;li&gt;&lt;font style=&quot;color: rgb(255, 255, 255);&quot;&gt;Email&lt;/font&gt;&lt;/li&gt;&lt;li&gt;&lt;font style=&quot;color: rgb(255, 255, 255);&quot;&gt;Password&lt;/font&gt;&lt;/li&gt;&lt;li&gt;&lt;font style=&quot;color: rgb(255, 255, 255);&quot;&gt;Phone Number&lt;/font&gt;&lt;/li&gt;&lt;li&gt;&lt;font style=&quot;color: rgb(255, 255, 255);&quot;&gt;Is Trust&lt;/font&gt;&lt;/li&gt;&lt;li&gt;&lt;font style=&quot;color: rgb(255, 255, 255);&quot;&gt;is Active&lt;/font&gt;&lt;/li&gt;&lt;li&gt;&lt;font style=&quot;color: rgb(255, 255, 255);&quot;&gt;Nationality&lt;/font&gt;&lt;/li&gt;&lt;li&gt;&lt;font style=&quot;color: rgb(255, 255, 255);&quot;&gt;Country&lt;/font&gt;&lt;/li&gt;&lt;li&gt;&lt;font style=&quot;color: rgb(255, 255, 255);&quot;&gt;City&lt;/font&gt;&lt;/li&gt;&lt;li&gt;&lt;font style=&quot;color: rgb(255, 255, 255);&quot;&gt;Neighborhood&lt;/font&gt;&lt;/li&gt;&lt;li&gt;&lt;font style=&quot;color: rgb(255, 255, 255);&quot;&gt;Account Type []&lt;/font&gt;&lt;/li&gt;&lt;li&gt;&lt;font style=&quot;color: rgb(255, 255, 255);&quot;&gt;Account Role []&lt;/font&gt;&lt;/li&gt;&lt;/ul&gt;&lt;/div&gt;" style="whiteSpace=wrap;html=1;rounded=1;shadow=0;strokeColor=#005700;align=left;verticalAlign=top;spacingTop=12;spacing=0;fontFamily=Helvetica;fontSize=12;fontColor=default;fillColor=#008a00;horizontal=1;spacingLeft=21;spacingBottom=0;spacingRight=0;" vertex="1" parent="1">
                    <mxGeometry x="40" y="-330" width="260" height="950" as="geometry"/>
                </mxCell>
                <mxCell id="13" value="&lt;font style=&quot;color: rgb(255, 255, 255);&quot;&gt;Ads&lt;/font&gt;&lt;div&gt;&lt;ul style=&quot;padding-left: 20px;&quot;&gt;&lt;li&gt;&lt;font style=&quot;color: rgb(255, 255, 255);&quot;&gt;User&lt;/font&gt;&lt;/li&gt;&lt;li&gt;&lt;font style=&quot;color: rgb(255, 255, 255);&quot;&gt;Title&lt;/font&gt;&lt;/li&gt;&lt;li&gt;&lt;font style=&quot;color: rgb(255, 255, 255);&quot;&gt;Details&lt;/font&gt;&lt;/li&gt;&lt;li&gt;&lt;font style=&quot;color: rgb(255, 255, 255);&quot;&gt;Price&lt;/font&gt;&lt;/li&gt;&lt;li&gt;&lt;font style=&quot;color: rgb(255, 255, 255);&quot;&gt;Date and Time&lt;/font&gt;&lt;/li&gt;&lt;li&gt;&lt;font style=&quot;color: rgb(255, 255, 255);&quot;&gt;Location&lt;/font&gt;&lt;/li&gt;&lt;li&gt;&lt;font style=&quot;color: rgb(255, 255, 255);&quot;&gt;Ratings&lt;/font&gt;&lt;/li&gt;&lt;/ul&gt;&lt;/div&gt;" style="whiteSpace=wrap;html=1;rounded=1;shadow=0;strokeColor=#005700;align=left;verticalAlign=top;spacingTop=12;spacing=0;fontFamily=Helvetica;fontSize=12;fontColor=default;fillColor=#008a00;horizontal=1;spacingLeft=21;spacingBottom=0;spacingRight=0;" vertex="1" parent="1">
                    <mxGeometry x="580" y="-210" width="180" height="210" as="geometry"/>
                </mxCell>
                <mxCell id="15" value="&lt;font style=&quot;color: rgb(255, 255, 255);&quot;&gt;Requests&lt;/font&gt;&lt;div&gt;&lt;ul style=&quot;padding-left: 20px;&quot;&gt;&lt;li&gt;&lt;font style=&quot;color: rgb(255, 255, 255);&quot;&gt;Status&lt;/font&gt;&lt;/li&gt;&lt;li&gt;&lt;font style=&quot;color: rgb(255, 255, 255);&quot;&gt;Location&lt;/font&gt;&lt;/li&gt;&lt;li&gt;&lt;font style=&quot;color: rgb(255, 255, 255);&quot;&gt;Publishing Date&lt;/font&gt;&lt;/li&gt;&lt;li&gt;&lt;font style=&quot;color: rgb(255, 255, 255);&quot;&gt;Requester&lt;/font&gt;&lt;/li&gt;&lt;li&gt;&lt;font style=&quot;color: rgb(255, 255, 255);&quot;&gt;Title&lt;/font&gt;&lt;/li&gt;&lt;li&gt;&lt;font style=&quot;color: rgb(255, 255, 255);&quot;&gt;Content&lt;/font&gt;&lt;/li&gt;&lt;li&gt;&lt;font style=&quot;color: rgb(255, 255, 255);&quot;&gt;Keywords&lt;/font&gt;&lt;/li&gt;&lt;li&gt;&lt;font style=&quot;color: rgb(255, 255, 255);&quot;&gt;Attached Files&lt;/font&gt;&lt;/li&gt;&lt;li&gt;&lt;span style=&quot;background-color: transparent;&quot;&gt;&lt;font style=&quot;color: rgb(255, 255, 255);&quot;&gt;Number of Offers&lt;/font&gt;&lt;/span&gt;&lt;/li&gt;&lt;li&gt;&lt;span style=&quot;background-color: transparent;&quot;&gt;&lt;font style=&quot;color: rgb(255, 255, 255);&quot;&gt;Submitted Offers&lt;/font&gt;&lt;/span&gt;&lt;/li&gt;&lt;/ul&gt;&lt;/div&gt;" style="whiteSpace=wrap;html=1;rounded=1;shadow=0;strokeColor=#005700;align=left;verticalAlign=top;spacingTop=12;spacing=0;fontFamily=Helvetica;fontSize=12;fontColor=#FFFFFF;fillColor=#008a00;horizontal=1;spacingLeft=21;spacingBottom=0;spacingRight=0;" vertex="1" parent="1">
                    <mxGeometry x="560" y="130" width="190" height="270" as="geometry"/>
                </mxCell>
                <mxCell id="49" style="edgeStyle=orthogonalEdgeStyle;html=1;fontFamily=Helvetica;fontSize=12;fontColor=default;exitX=0.5;exitY=1;exitDx=0;exitDy=0;entryX=0.456;entryY=-0.001;entryDx=0;entryDy=0;entryPerimeter=0;endArrow=ERmany;" edge="1" parent="1" source="15" target="16">
                    <mxGeometry relative="1" as="geometry">
                        <mxPoint x="1020" y="490" as="sourcePoint"/>
                        <mxPoint x="840" y="450" as="targetPoint"/>
                    </mxGeometry>
                </mxCell>
                <mxCell id="51" value="" style="edgeLabel;html=1;align=center;verticalAlign=middle;resizable=0;points=[];rounded=1;shadow=0;strokeColor=#005700;spacingTop=0;spacing=1;fontFamily=Helvetica;fontSize=12;fontColor=default;fillColor=#008a00;" vertex="1" connectable="0" parent="49">
                    <mxGeometry x="0.0837" y="2" relative="1" as="geometry">
                        <mxPoint as="offset"/>
                    </mxGeometry>
                </mxCell>
                <mxCell id="52" value="N-to-1" style="edgeLabel;html=1;align=center;verticalAlign=middle;resizable=0;points=[];rounded=1;shadow=0;strokeColor=#005700;spacingTop=0;spacing=1;fontFamily=Helvetica;fontSize=12;fontColor=default;fillColor=#008a00;direction=north;" vertex="1" connectable="0" parent="49">
                    <mxGeometry x="0.371" y="2" relative="1" as="geometry">
                        <mxPoint as="offset"/>
                    </mxGeometry>
                </mxCell>
                <mxCell id="16" value="Submitted Offers&lt;br&gt;&lt;div&gt;&lt;ul style=&quot;padding-left: 20px;&quot;&gt;&lt;li&gt;&lt;font color=&quot;#ffffff&quot;&gt;User&lt;/font&gt;&lt;/li&gt;&lt;li&gt;&lt;font color=&quot;#ffffff&quot;&gt;Request&lt;/font&gt;&lt;/li&gt;&lt;li&gt;&lt;font color=&quot;#ffffff&quot;&gt;Content&lt;/font&gt;&lt;/li&gt;&lt;li&gt;&lt;font color=&quot;#ffffff&quot;&gt;Date and Time&lt;/font&gt;&lt;/li&gt;&lt;li&gt;&lt;font color=&quot;#ffffff&quot;&gt;Is Acepted&lt;/font&gt;&lt;/li&gt;&lt;/ul&gt;&lt;/div&gt;" style="whiteSpace=wrap;html=1;rounded=1;shadow=0;strokeColor=#005700;align=left;verticalAlign=top;spacingTop=12;spacing=0;fontFamily=Helvetica;fontSize=12;fillColor=#008a00;horizontal=1;spacingLeft=21;spacingBottom=0;spacingRight=0;fontColor=#ffffff;" vertex="1" parent="1">
                    <mxGeometry x="561.25" y="510" width="207.5" height="360" as="geometry"/>
                </mxCell>
                <mxCell id="18" value="Job Information&lt;div&gt;&lt;ul style=&quot;padding-left: 20px;&quot;&gt;&lt;li&gt;&lt;font color=&quot;#ffffff&quot;&gt;Job Title&lt;/font&gt;&lt;/li&gt;&lt;li&gt;ِ&lt;font style=&quot;color: rgb(255, 255, 255);&quot;&gt;About&lt;/font&gt;&lt;/li&gt;&lt;li&gt;&lt;font color=&quot;#ffffff&quot;&gt;Skills []&lt;/font&gt;&lt;/li&gt;&lt;li&gt;&lt;font color=&quot;#ffffff&quot;&gt;Last Available&lt;/font&gt;&lt;/li&gt;&lt;li&gt;&lt;font color=&quot;#ffffff&quot;&gt;Work Completed&lt;/font&gt;&lt;/li&gt;&lt;li&gt;&lt;font color=&quot;#ffffff&quot;&gt;Responding to Requests&lt;/font&gt;&lt;/li&gt;&lt;li&gt;&lt;font color=&quot;#ffffff&quot;&gt;Number of Clients&lt;/font&gt;&lt;/li&gt;&lt;li&gt;&lt;font color=&quot;#ffffff&quot;&gt;Contact&lt;/font&gt;&lt;/li&gt;&lt;li&gt;&lt;font color=&quot;#ffffff&quot;&gt;Areas of Expertise&lt;/font&gt;&lt;/li&gt;&lt;li&gt;&lt;font color=&quot;#ffffff&quot;&gt;Certifications and Courses&lt;/font&gt;&lt;/li&gt;&lt;li&gt;&lt;font color=&quot;#ffffff&quot;&gt;Languages&lt;/font&gt;&lt;/li&gt;&lt;li&gt;&lt;font color=&quot;#ffffff&quot;&gt;Certifications&lt;/font&gt;&lt;/li&gt;&lt;li&gt;&lt;font color=&quot;#ffffff&quot;&gt;Badges&lt;/font&gt;&lt;/li&gt;&lt;li&gt;&lt;font color=&quot;#ffffff&quot;&gt;Reviews and Comments&lt;/font&gt;&lt;/li&gt;&lt;li&gt;&lt;font color=&quot;#ffffff&quot;&gt;Photos of Work and Certificates&lt;/font&gt;&lt;/li&gt;&lt;li&gt;&lt;span style=&quot;background-color: transparent;&quot;&gt;&lt;font style=&quot;color: rgb(255, 255, 255);&quot;&gt;Total Evaluation&lt;/font&gt;&lt;/span&gt;&lt;/li&gt;&lt;/ul&gt;&lt;/div&gt;" style="whiteSpace=wrap;html=1;rounded=1;shadow=0;strokeColor=#2D7600;align=left;verticalAlign=top;spacingTop=12;spacing=0;fontFamily=Helvetica;fontSize=12;fontColor=#ffffff;fillColor=#60a917;horizontal=1;spacingLeft=21;spacingBottom=0;spacingRight=0;" vertex="1" parent="1">
                    <mxGeometry x="60" y="220" width="220" height="380" as="geometry"/>
                </mxCell>
                <mxCell id="19" value="&lt;font style=&quot;color: rgb(255, 255, 255);&quot;&gt;Evaluation&lt;/font&gt;&lt;div&gt;&lt;ul style=&quot;padding-left: 20px;&quot;&gt;&lt;li&gt;&lt;font style=&quot;color: rgb(255, 255, 255);&quot;&gt;Comment&lt;/font&gt;&lt;/li&gt;&lt;li&gt;&lt;font style=&quot;color: rgb(255, 255, 255);&quot;&gt;Price for Work&lt;/font&gt;&lt;/li&gt;&lt;li&gt;&lt;font color=&quot;#ffffff&quot;&gt;Quality of Work&lt;/font&gt;&lt;/li&gt;&lt;li&gt;&lt;font color=&quot;#ffffff&quot;&gt;Design Presented&lt;/font&gt;&lt;/li&gt;&lt;li&gt;&lt;font color=&quot;#ffffff&quot;&gt;Overall Evaluation&lt;/font&gt;&lt;/li&gt;&lt;li&gt;&lt;font color=&quot;#ffffff&quot;&gt;Total&lt;/font&gt;&lt;/li&gt;&lt;/ul&gt;&lt;/div&gt;" style="whiteSpace=wrap;html=1;rounded=1;shadow=0;strokeColor=#2D7600;align=left;verticalAlign=top;spacingTop=12;spacing=0;fontFamily=Helvetica;fontSize=12;fillColor=#60a917;horizontal=1;spacingLeft=21;spacingBottom=0;spacingRight=0;fontColor=#ffffff;" vertex="1" parent="1">
                    <mxGeometry x="580" y="670" width="170" height="180" as="geometry"/>
                </mxCell>
                <mxCell id="21" value="&lt;font style=&quot;color: rgb(255, 255, 255);&quot;&gt;Total Evaluation&lt;/font&gt;&lt;div&gt;&lt;ul style=&quot;padding-left: 20px;&quot;&gt;&lt;li&gt;&lt;font style=&quot;color: rgb(255, 255, 255);&quot;&gt;User&lt;/font&gt;&lt;/li&gt;&lt;li&gt;&lt;font style=&quot;color: rgb(255, 255, 255);&quot;&gt;Price for Work&lt;/font&gt;&lt;/li&gt;&lt;li&gt;&lt;font style=&quot;color: rgb(255, 255, 255);&quot;&gt;Quality of Work&lt;/font&gt;&lt;/li&gt;&lt;li&gt;&lt;font style=&quot;color: rgb(255, 255, 255);&quot;&gt;Design Presented&lt;/font&gt;&lt;/li&gt;&lt;li&gt;&lt;font style=&quot;color: rgb(255, 255, 255);&quot;&gt;Overall Evaluation&lt;/font&gt;&lt;/li&gt;&lt;li&gt;&lt;font style=&quot;color: rgb(255, 255, 255);&quot;&gt;Total&lt;/font&gt;&lt;/li&gt;&lt;/ul&gt;&lt;/div&gt;" style="whiteSpace=wrap;html=1;rounded=1;shadow=0;strokeColor=#005700;align=left;verticalAlign=top;spacingTop=12;spacing=0;fontFamily=Helvetica;fontSize=12;fillColor=#008a00;horizontal=1;spacingLeft=21;spacingBottom=0;spacingRight=0;fontColor=#ffffff;" vertex="1" parent="1">
                    <mxGeometry x="280" y="910" width="170" height="170" as="geometry"/>
                </mxCell>
                <mxCell id="22" value="&lt;font style=&quot;color: rgb(255, 255, 255);&quot;&gt;Logs&lt;br&gt;&lt;/font&gt;&lt;div&gt;&lt;ul style=&quot;padding-left: 20px;&quot;&gt;&lt;li&gt;&lt;font style=&quot;color: rgb(255, 255, 255);&quot;&gt;User&lt;/font&gt;&lt;/li&gt;&lt;li&gt;&lt;font style=&quot;color: rgb(255, 255, 255);&quot;&gt;Login Data []&lt;/font&gt;&lt;/li&gt;&lt;/ul&gt;&lt;/div&gt;" style="whiteSpace=wrap;html=1;rounded=1;shadow=0;strokeColor=#005700;align=left;verticalAlign=top;spacingTop=12;spacing=0;fontFamily=Helvetica;fontSize=12;fontColor=default;fillColor=#008a00;horizontal=1;spacingLeft=21;spacingBottom=0;spacingRight=0;" vertex="1" parent="1">
                    <mxGeometry x="20" y="780" width="150" height="110" as="geometry"/>
                </mxCell>
                <mxCell id="23" style="edgeStyle=orthogonalEdgeStyle;html=1;fontFamily=Helvetica;fontSize=12;fontColor=default;endArrow=ERzeroToMany;endFill=1;entryX=0.008;entryY=0.421;entryDx=0;entryDy=0;entryPerimeter=0;" edge="1" parent="1" source="10" target="13">
                    <mxGeometry relative="1" as="geometry">
                        <mxPoint x="550" y="-122" as="targetPoint"/>
                        <Array as="points">
                            <mxPoint x="435" y="80"/>
                            <mxPoint x="435" y="-122"/>
                        </Array>
                    </mxGeometry>
                </mxCell>
                <mxCell id="47" value="" style="edgeLabel;html=1;align=center;verticalAlign=middle;resizable=0;points=[];rounded=1;shadow=0;strokeColor=#005700;spacingTop=0;spacing=1;fontFamily=Helvetica;fontSize=12;fontColor=default;fillColor=#008a00;" vertex="1" connectable="0" parent="23">
                    <mxGeometry x="-0.0189" y="-6" relative="1" as="geometry">
                        <mxPoint as="offset"/>
                    </mxGeometry>
                </mxCell>
                <mxCell id="48" value="1-to-N" style="edgeLabel;html=1;align=center;verticalAlign=middle;resizable=0;points=[];rounded=1;shadow=0;strokeColor=#005700;spacingTop=0;spacing=1;fontFamily=Helvetica;fontSize=12;fontColor=default;fillColor=#008a00;" vertex="1" connectable="0" parent="23">
                    <mxGeometry x="-0.0299" y="-2" relative="1" as="geometry">
                        <mxPoint as="offset"/>
                    </mxGeometry>
                </mxCell>
                <mxCell id="31" style="edgeStyle=entityRelationEdgeStyle;html=1;exitX=1.004;exitY=0.639;exitDx=0;exitDy=0;fontFamily=Helvetica;fontSize=12;fontColor=default;entryX=0.025;entryY=0.551;entryDx=0;entryDy=0;entryPerimeter=0;endArrow=ERzeroToMany;endFill=1;exitPerimeter=0;" edge="1" parent="1" source="10" target="15">
                    <mxGeometry relative="1" as="geometry">
                        <mxPoint x="619" y="264" as="targetPoint"/>
                    </mxGeometry>
                </mxCell>
                <mxCell id="34" value="1-to-N" style="edgeLabel;html=1;align=center;verticalAlign=middle;resizable=0;points=[];rounded=1;shadow=0;strokeColor=#005700;spacingTop=0;spacing=1;fontFamily=Helvetica;fontSize=12;fontColor=default;fillColor=#008a00;" vertex="1" connectable="0" parent="31">
                    <mxGeometry x="-0.0593" y="-2" relative="1" as="geometry">
                        <mxPoint as="offset"/>
                    </mxGeometry>
                </mxCell>
                <mxCell id="35" style="edgeStyle=orthogonalEdgeStyle;html=1;exitX=0.5;exitY=1;exitDx=0;exitDy=0;entryX=0.421;entryY=-0.007;entryDx=0;entryDy=0;entryPerimeter=0;fontFamily=Helvetica;fontSize=12;fontColor=default;endArrow=ERmandOne;startArrow=ERmandOne;" edge="1" parent="1" source="10" target="21">
                    <mxGeometry relative="1" as="geometry"/>
                </mxCell>
                <mxCell id="41" value="1-to-1" style="edgeLabel;html=1;align=center;verticalAlign=middle;resizable=0;points=[];rounded=1;shadow=0;strokeColor=#005700;spacingTop=0;spacing=1;fontFamily=Helvetica;fontSize=12;fontColor=default;fillColor=#008a00;" vertex="1" connectable="0" parent="35">
                    <mxGeometry x="0.0201" y="2" relative="1" as="geometry">
                        <mxPoint as="offset"/>
                    </mxGeometry>
                </mxCell>
                <mxCell id="36" style="edgeStyle=orthogonalEdgeStyle;html=1;exitX=1;exitY=0.75;exitDx=0;exitDy=0;fontFamily=Helvetica;fontSize=12;fontColor=default;endArrow=ERmany;startArrow=ERmany;entryX=0.006;entryY=0.717;entryDx=0;entryDy=0;entryPerimeter=0;" edge="1" parent="1" source="10" target="16">
                    <mxGeometry relative="1" as="geometry">
                        <mxPoint x="430" y="720" as="targetPoint"/>
                    </mxGeometry>
                </mxCell>
                <mxCell id="39" value="N-to-N" style="edgeLabel;html=1;align=center;verticalAlign=middle;resizable=0;points=[];rounded=1;shadow=0;strokeColor=#005700;spacingTop=0;spacing=1;fontFamily=Helvetica;fontSize=12;fontColor=default;fillColor=#008a00;" vertex="1" connectable="0" parent="36">
                    <mxGeometry x="-0.0191" y="2" relative="1" as="geometry">
                        <mxPoint as="offset"/>
                    </mxGeometry>
                </mxCell>
                <mxCell id="37" style="edgeStyle=orthogonalEdgeStyle;html=1;exitX=0.5;exitY=1;exitDx=0;exitDy=0;entryX=0.447;entryY=0.004;entryDx=0;entryDy=0;entryPerimeter=0;fontFamily=Helvetica;fontSize=12;fontColor=default;endArrow=ERmandOne;startArrow=ERmandOne;" edge="1" parent="1" source="10" target="22">
                    <mxGeometry relative="1" as="geometry"/>
                </mxCell>
                <mxCell id="40" value="1-to-1" style="edgeLabel;html=1;align=center;verticalAlign=middle;resizable=0;points=[];rounded=1;shadow=0;strokeColor=#005700;spacingTop=0;spacing=1;fontFamily=Helvetica;fontSize=12;fontColor=default;fillColor=#008a00;" vertex="1" connectable="0" parent="37">
                    <mxGeometry x="-0.0197" y="-1" relative="1" as="geometry">
                        <mxPoint as="offset"/>
                    </mxGeometry>
                </mxCell>
                <mxCell id="54" value="&lt;font style=&quot;color: rgb(255, 255, 255);&quot;&gt;Reports&lt;br&gt;&lt;/font&gt;&lt;div&gt;&lt;ul style=&quot;padding-left: 20px;&quot;&gt;&lt;li&gt;&lt;font style=&quot;color: rgb(255, 255, 255);&quot;&gt;User&lt;/font&gt;&lt;/li&gt;&lt;li&gt;&lt;font style=&quot;color: rgb(255, 255, 255);&quot;&gt;Content&amp;nbsp;&lt;/font&gt;&lt;/li&gt;&lt;/ul&gt;&lt;/div&gt;" style="whiteSpace=wrap;html=1;rounded=1;shadow=0;strokeColor=#005700;align=left;verticalAlign=top;spacingTop=12;spacing=0;fontFamily=Helvetica;fontSize=12;fontColor=default;fillColor=#008a00;horizontal=1;spacingLeft=21;spacingBottom=0;spacingRight=0;" vertex="1" parent="1">
                    <mxGeometry x="-180" y="630" width="150" height="110" as="geometry"/>
                </mxCell>
                <mxCell id="58" value="&lt;font style=&quot;color: rgb(255, 255, 255);&quot;&gt;Masseges&lt;/font&gt;" style="whiteSpace=wrap;html=1;rounded=1;shadow=0;strokeColor=#005700;align=left;verticalAlign=top;spacingTop=12;spacing=0;fontFamily=Helvetica;fontSize=12;fontColor=default;fillColor=#008a00;horizontal=1;spacingLeft=21;spacingBottom=0;spacingRight=0;" vertex="1" parent="1">
                    <mxGeometry x="-180" y="-310" width="100" height="50" as="geometry"/>
                </mxCell>
                <mxCell id="59" value="&lt;font style=&quot;color: rgb(255, 255, 255);&quot;&gt;Skills []&lt;/font&gt;" style="whiteSpace=wrap;html=1;rounded=1;shadow=0;strokeColor=#FFFFFF;align=left;verticalAlign=top;spacingTop=12;spacing=0;fontFamily=Helvetica;fontSize=12;fontColor=default;fillColor=#008a00;horizontal=1;spacingLeft=21;spacingBottom=0;spacingRight=0;" vertex="1" parent="1">
                    <mxGeometry x="-175" y="-220" width="90" height="50" as="geometry"/>
                </mxCell>
                <mxCell id="61" value="Preson Information&lt;br&gt;&lt;div&gt;&lt;ul style=&quot;padding-left: 20px;&quot;&gt;&lt;li&gt;&lt;font color=&quot;#ffffff&quot;&gt;Gender&lt;/font&gt;&lt;/li&gt;&lt;li&gt;&lt;font style=&quot;color: rgb(255, 255, 255);&quot;&gt;ِNational ID&lt;/font&gt;&lt;/li&gt;&lt;/ul&gt;&lt;/div&gt;" style="whiteSpace=wrap;html=1;rounded=1;shadow=0;strokeColor=#2D7600;align=left;verticalAlign=top;spacingTop=12;spacing=0;fontFamily=Helvetica;fontSize=12;fontColor=#ffffff;fillColor=#60a917;horizontal=1;spacingLeft=21;spacingBottom=0;spacingRight=0;" vertex="1" parent="1">
                    <mxGeometry x="60" y="-10" width="220" height="120" as="geometry"/>
                </mxCell>
                <mxCell id="62" value="Company Information&lt;div&gt;&lt;ul style=&quot;padding-left: 20px;&quot;&gt;&lt;li&gt;&lt;font style=&quot;color: rgb(255, 255, 255);&quot;&gt;Commercial Register&lt;/font&gt;&lt;/li&gt;&lt;/ul&gt;&lt;/div&gt;" style="whiteSpace=wrap;html=1;rounded=1;shadow=0;strokeColor=#2D7600;align=left;verticalAlign=top;spacingTop=12;spacing=0;fontFamily=Helvetica;fontSize=12;fontColor=#ffffff;fillColor=#60a917;horizontal=1;spacingLeft=21;spacingBottom=0;spacingRight=0;" vertex="1" parent="1">
                    <mxGeometry x="60" y="120" width="220" height="90" as="geometry"/>
                </mxCell>
            </root>
        </mxGraphModel>
    </diagram>
</mxfile>